# xmcd CD database file
#
# Track frame offsets:
#	150
#	13272
#	25763
#	38593
#	51073
#	63651
#	75661
#	88338
#	99446
#	112306
#	124727
#	136032
#	148434
#	161652
#	173370
#
# Disc length: 2481 seconds
#
# Revision: 1
# Processed by: cddbd v1.5.1PL0 Copyright (c) Steve Scherf et al.
# Submitted via: CDex 1.51
#
DISCID=ca09af0f
DTITLE=Roy Acuff - Wabash Cannonball
DYEAR=1900
DGENRE=Country
TTITLE0=Great Speckled Bird
TTITLE1=The Prodigal Son
TTITLE2=Night Train to Memphis
TTITLE3=Wreck on the Highway
TTITLE4=Beautiful Brown Eyes
TTITLE5=I'll Forgive You, but I Can't Forget
TTITLE6=We Live in Two Different Worlds
TTITLE7=Not a Word from Home
TTITLE8=Jole Blon
TTITLE9=Freight Train Blues
TTITLE10=Write Me, Sweetheart
TTITLE11=Be Honest With Me
TTITLE12=Waiting for My Call to Glory
TTITLE13=Wait fo rthe Light to Shine
TTITLE14=Wabash Cannonball
EXTD=
EXTT0=
EXTT1=
EXTT2=
EXTT3=
EXTT4=
EXTT5=
EXTT6=
EXTT7=
EXTT8=
EXTT9=
EXTT10=
EXTT11=
EXTT12=
EXTT13=
EXTT14=
PLAYORDER=
